<svg width="278" height="444" viewBox="0 0 278 444" fill="none" xmlns="http://www.w3.org/2000/svg">
<path d="M144.048 0C142.33 0 140.55 0.00489467 138.831 0.00489467C137.115 0.00489467 135.487 0 133.768 0C92.6168 0 45.8781 3.24516 0 13.0174C0 13.0174 0 140.073 0 276.047C0 412.082 139.017 444 139.017 444C139.017 444 278 412.053 278 276.047C278 140.073 278 13.0174 278 13.0174C232.122 3.24516 185.263 0 144.048 0ZM200.761 168.651L160.926 177.473C160.926 173.66 160.904 169.632 160.865 165.834C160.828 162.035 160.774 158.467 160.713 155.572C160.591 149.813 160.407 145.34 160.13 142.185C159.33 135.876 157.031 130.822 153.225 126.992C149.388 123.194 144.6 121.295 138.831 121.295C127.999 121.295 121.156 127.33 118.27 139.398C117.228 143.871 116.706 153.213 116.706 174.747V254.574C116.706 267.684 116.89 273.658 117.289 279.845C117.689 286.003 118.395 290.535 119.469 293.445C125.177 308.76 138.831 313.907 138.831 313.907C138.831 313.907 153.654 307.75 158.166 293.445C158.994 291.086 159.517 288.452 159.73 285.543C160.252 281.867 160.591 276.076 160.713 268.206C160.774 263.181 160.865 259.75 160.897 253.686L200.761 244.863V262.293C200.761 269.123 200.638 274.975 200.393 279.845C200.116 284.715 199.655 289.035 199.01 292.833C195.021 339.79 139.262 358.507 139.201 358.784C139.14 359.058 89.7629 346.868 80.1886 297.98C78.9897 292.833 78.2247 286.707 77.7932 279.63C77.4255 272.555 77.2097 267.562 77.2097 257.33V171.959C77.2097 161.73 77.4255 156.705 77.7932 149.476C78.2247 142.246 78.9897 136.059 80.1886 130.913C81.3532 125.83 83.0107 121.295 85.129 117.345C87.2155 113.422 89.8536 109.472 93.014 105.519C98.2633 98.6887 104.922 93.5126 112.932 89.9591C120.972 86.4373 129.717 84.6581 139.201 84.6581C150.801 84.6581 161.172 87.1397 170.41 92.1347C179.585 97.1273 186.705 104.203 191.706 113.422C193.548 116.579 195.083 119.64 196.25 122.643C197.475 125.705 198.336 129.045 199.01 132.721C199.655 136.397 200.116 140.533 200.393 145.127C200.638 149.752 200.761 151.497 200.761 157.809V168.651Z" fill="#202020"/>
</svg>
